# MagicaVoxel @ Ephtracy

# group
o 

# material
mtllib mine.mtl
usemtl palette

# normals
vn -1 0 0
vn 1 0 0
vn 0 0 1
vn 0 0 -1
vn 0 -1 0
vn 0 1 0

# texcoords
vt 0.0917969 0.5
vt 0.978516 0.5
vt 0.986328 0.5
vt 0.990234 0.5

# verts
v -1.3 0 1.3
v -1.3 0 -1.3
v -1.3 0.5 1.3
v -1.3 0.5 -1.3
v -1.2 0.5 1.2
v -1.2 0.5 0.8
v -1.2 0.5 -0.8
v -1.2 0.5 -1.2
v -1.2 2.4 0.8
v -1.2 2.4 -0.8
v -1.2 2.5 1.2
v -1.2 2.5 -1.2
v -1.1 0.5 0.8
v -1.1 0.5 -0.8
v -1.1 2.4 0.8
v -1.1 2.4 -0.8
v -0.3 2.5 0.2
v -0.3 2.5 -0.2
v -0.3 3.2 0.2
v -0.3 3.2 -0.2
v 0.8 0.5 1.2
v 0.8 0.5 1.1
v 0.8 0.5 -1.1
v 0.8 0.5 -1.2
v 0.8 2.4 1.2
v 0.8 2.4 1.1
v 0.8 2.4 -1.1
v 0.8 2.4 -1.2
v -0.8 0.5 1.2
v -0.8 0.5 1.1
v -0.8 0.5 -1.1
v -0.8 0.5 -1.2
v -0.8 2.4 1.2
v -0.8 2.4 1.1
v -0.8 2.4 -1.1
v -0.8 2.4 -1.2
v 0.3 2.5 0.2
v 0.3 2.5 -0.2
v 0.3 3.2 0.2
v 0.3 3.2 -0.2
v 1.1 0.5 0.8
v 1.1 0.5 -0.8
v 1.1 2.4 0.8
v 1.1 2.4 -0.8
v 1.2 0.5 1.2
v 1.2 0.5 0.8
v 1.2 0.5 -0.8
v 1.2 0.5 -1.2
v 1.2 2.4 0.8
v 1.2 2.4 -0.8
v 1.2 2.5 1.2
v 1.2 2.5 -1.2
v 1.3 0 1.3
v 1.3 0 -1.3
v 1.3 0.5 1.3
v 1.3 0.5 -1.3
v -1.3 0 1.3
v -1.3 0.5 1.3
v 1.3 0 1.3
v 1.3 0.5 1.3
v -1.2 0.5 1.2
v -1.2 2.5 1.2
v -0.8 0.5 1.2
v -0.8 2.4 1.2
v 0.8 0.5 1.2
v 0.8 2.4 1.2
v 1.2 0.5 1.2
v 1.2 2.5 1.2
v -0.8 0.5 1.1
v -0.8 2.4 1.1
v 0.8 0.5 1.1
v 0.8 2.4 1.1
v -0.3 2.5 0.2
v -0.3 3.2 0.2
v 0.3 2.5 0.2
v 0.3 3.2 0.2
v -1.2 0.5 -0.8
v -1.2 2.4 -0.8
v -1.1 0.5 -0.8
v -1.1 2.4 -0.8
v 1.1 0.5 -0.8
v 1.1 2.4 -0.8
v 1.2 0.5 -0.8
v 1.2 2.4 -0.8
v -1.2 0.5 0.8
v -1.2 2.4 0.8
v -1.1 0.5 0.8
v -1.1 2.4 0.8
v 1.1 0.5 0.8
v 1.1 2.4 0.8
v 1.2 0.5 0.8
v 1.2 2.4 0.8
v -0.3 2.5 -0.2
v -0.3 3.2 -0.2
v 0.3 2.5 -0.2
v 0.3 3.2 -0.2
v -0.8 0.5 -1.1
v -0.8 2.4 -1.1
v 0.8 0.5 -1.1
v 0.8 2.4 -1.1
v -1.2 0.5 -1.2
v -1.2 2.5 -1.2
v -0.8 0.5 -1.2
v -0.8 2.4 -1.2
v 0.8 0.5 -1.2
v 0.8 2.4 -1.2
v 1.2 0.5 -1.2
v 1.2 2.5 -1.2
v -1.3 0 -1.3
v -1.3 0.5 -1.3
v 1.3 0 -1.3
v 1.3 0.5 -1.3
v -1.3 0 1.3
v 1.3 0 1.3
v -1.3 0 -1.3
v 1.3 0 -1.3
v -0.8 2.4 1.2
v 0.8 2.4 1.2
v -0.8 2.4 1.1
v 0.8 2.4 1.1
v -1.2 2.4 0.8
v -1.1 2.4 0.8
v 1.1 2.4 0.8
v 1.2 2.4 0.8
v -1.2 2.4 -0.8
v -1.1 2.4 -0.8
v 1.1 2.4 -0.8
v 1.2 2.4 -0.8
v -0.8 2.4 -1.1
v 0.8 2.4 -1.1
v -0.8 2.4 -1.2
v 0.8 2.4 -1.2
v -1.3 0.5 1.3
v 1.3 0.5 1.3
v -1.2 0.5 1.2
v -0.8 0.5 1.2
v 0.8 0.5 1.2
v 1.2 0.5 1.2
v -0.8 0.5 1.1
v 0.8 0.5 1.1
v -1.2 0.5 0.8
v -1.1 0.5 0.8
v 1.1 0.5 0.8
v 1.2 0.5 0.8
v -1.2 0.5 -0.8
v -1.1 0.5 -0.8
v 1.1 0.5 -0.8
v 1.2 0.5 -0.8
v -0.8 0.5 -1.1
v 0.8 0.5 -1.1
v -1.2 0.5 -1.2
v -0.8 0.5 -1.2
v 0.8 0.5 -1.2
v 1.2 0.5 -1.2
v -1.3 0.5 -1.3
v 1.3 0.5 -1.3
v -1.2 2.5 1.2
v 1.2 2.5 1.2
v -0.3 2.5 0.2
v 0.3 2.5 0.2
v -0.3 2.5 -0.2
v 0.3 2.5 -0.2
v -1.2 2.5 -1.2
v 1.2 2.5 -1.2
v -0.3 3.2 0.2
v 0.3 3.2 0.2
v -0.3 3.2 -0.2
v 0.3 3.2 -0.2

# faces
f 3/3/1 2/3/1 1/3/1
f 4/3/1 2/3/1 3/3/1
f 9/2/1 6/2/1 5/2/1
f 10/2/1 8/2/1 7/2/1
f 11/2/1 9/2/1 5/2/1
f 11/2/1 10/2/1 9/2/1
f 12/2/1 8/2/1 10/2/1
f 12/2/1 10/2/1 11/2/1
f 15/1/1 14/1/1 13/1/1
f 16/1/1 14/1/1 15/1/1
f 19/4/1 18/4/1 17/4/1
f 20/4/1 18/4/1 19/4/1
f 25/2/1 22/2/1 21/2/1
f 26/2/1 22/2/1 25/2/1
f 27/2/1 24/2/1 23/2/1
f 28/2/1 24/2/1 27/2/1
f 29/2/2 30/2/2 33/2/2
f 33/2/2 30/2/2 34/2/2
f 31/2/2 32/2/2 35/2/2
f 35/2/2 32/2/2 36/2/2
f 37/4/2 38/4/2 39/4/2
f 39/4/2 38/4/2 40/4/2
f 41/1/2 42/1/2 43/1/2
f 43/1/2 42/1/2 44/1/2
f 45/2/2 46/2/2 49/2/2
f 47/2/2 48/2/2 50/2/2
f 45/2/2 49/2/2 51/2/2
f 49/2/2 50/2/2 51/2/2
f 50/2/2 48/2/2 52/2/2
f 51/2/2 50/2/2 52/2/2
f 53/3/2 54/3/2 55/3/2
f 55/3/2 54/3/2 56/3/2
f 59/3/3 58/3/3 57/3/3
f 60/3/3 58/3/3 59/3/3
f 63/2/3 62/2/3 61/2/3
f 64/2/3 62/2/3 63/2/3
f 66/2/3 62/2/3 64/2/3
f 67/2/3 66/2/3 65/2/3
f 68/2/3 62/2/3 66/2/3
f 68/2/3 66/2/3 67/2/3
f 71/1/3 70/1/3 69/1/3
f 72/1/3 70/1/3 71/1/3
f 75/4/3 74/4/3 73/4/3
f 76/4/3 74/4/3 75/4/3
f 79/2/3 78/2/3 77/2/3
f 80/2/3 78/2/3 79/2/3
f 83/2/3 82/2/3 81/2/3
f 84/2/3 82/2/3 83/2/3
f 85/2/4 86/2/4 87/2/4
f 87/2/4 86/2/4 88/2/4
f 89/2/4 90/2/4 91/2/4
f 91/2/4 90/2/4 92/2/4
f 93/4/4 94/4/4 95/4/4
f 95/4/4 94/4/4 96/4/4
f 97/1/4 98/1/4 99/1/4
f 99/1/4 98/1/4 100/1/4
f 101/2/4 102/2/4 103/2/4
f 103/2/4 102/2/4 104/2/4
f 104/2/4 102/2/4 106/2/4
f 105/2/4 106/2/4 107/2/4
f 106/2/4 102/2/4 108/2/4
f 107/2/4 106/2/4 108/2/4
f 109/3/4 110/3/4 111/3/4
f 111/3/4 110/3/4 112/3/4
f 115/3/5 114/3/5 113/3/5
f 116/3/5 114/3/5 115/3/5
f 119/2/5 118/2/5 117/2/5
f 120/2/5 118/2/5 119/2/5
f 125/2/5 122/2/5 121/2/5
f 126/2/5 122/2/5 125/2/5
f 127/2/5 124/2/5 123/2/5
f 128/2/5 124/2/5 127/2/5
f 131/2/5 130/2/5 129/2/5
f 132/2/5 130/2/5 131/2/5
f 133/3/6 134/3/6 135/3/6
f 135/3/6 134/3/6 136/3/6
f 136/3/6 134/3/6 137/3/6
f 137/3/6 134/3/6 138/3/6
f 136/3/6 137/3/6 139/3/6
f 139/3/6 137/3/6 140/3/6
f 133/3/6 135/3/6 141/3/6
f 138/3/6 134/3/6 144/3/6
f 141/3/6 142/3/6 145/3/6
f 133/3/6 141/3/6 145/3/6
f 145/3/6 142/3/6 146/3/6
f 143/3/6 144/3/6 147/3/6
f 144/3/6 134/3/6 148/3/6
f 147/3/6 144/3/6 148/3/6
f 133/3/6 145/3/6 151/3/6
f 149/3/6 150/3/6 152/3/6
f 152/3/6 150/3/6 153/3/6
f 148/3/6 134/3/6 154/3/6
f 152/3/6 153/3/6 155/3/6
f 153/3/6 154/3/6 155/3/6
f 133/3/6 151/3/6 155/3/6
f 151/3/6 152/3/6 155/3/6
f 154/3/6 134/3/6 156/3/6
f 155/3/6 154/3/6 156/3/6
f 157/2/6 158/2/6 159/2/6
f 159/2/6 158/2/6 160/2/6
f 157/2/6 159/2/6 161/2/6
f 160/2/6 158/2/6 162/2/6
f 157/2/6 161/2/6 163/2/6
f 161/2/6 162/2/6 163/2/6
f 162/2/6 158/2/6 164/2/6
f 163/2/6 162/2/6 164/2/6
f 165/4/6 166/4/6 167/4/6
f 167/4/6 166/4/6 168/4/6
